<svg xmlns="http://www.w3.org/2000/svg" width="640" height="420" viewBox="0 0 640 420" fill="none">
  <rect width="640" height="420" fill="#172026"/>
  <circle cx="542" cy="88" r="112" fill="#0F766E" opacity="0.35"/>
  <circle cx="124" cy="336" r="130" fill="#B91C1C" opacity="0.28"/>
  <rect x="66" y="50" width="508" height="320" rx="26" fill="#1F2D35" stroke="#F59E0B" stroke-opacity="0.35"/>
  <path d="M158 300H482V184L418 138L320 196L250 150L158 198V300Z" fill="#334155" stroke="#94A3B8" stroke-opacity="0.7"/>
  <path d="M286 226H352V300H286V226Z" fill="#0F172A"/>
  <rect x="214" y="220" width="44" height="36" rx="6" fill="#111827"/>
  <rect x="382" y="220" width="44" height="36" rx="6" fill="#111827"/>
  <circle cx="272" cy="148" r="26" fill="#FCD34D"/>
  <circle cx="338" cy="144" r="26" fill="#FEE2E2"/>
  <path d="M228 312C248 268 276 246 304 246C332 246 358 266 380 312" fill="#FBCFE8"/>
  <text x="320" y="354" text-anchor="middle" fill="#FDBA74" font-family="Arial, sans-serif" font-size="21" font-weight="700">NOSSO LAR</text>
</svg>
