<svg xmlns="http://www.w3.org/2000/svg" width="640" height="420" viewBox="0 0 640 420" fill="none">
  <rect width="640" height="420" fill="#1C1A28"/>
  <circle cx="130" cy="98" r="108" fill="#7C3AED" opacity="0.2"/>
  <circle cx="516" cy="328" r="140" fill="#EF4444" opacity="0.24"/>
  <rect x="62" y="46" width="516" height="328" rx="28" fill="#2A2437" stroke="#FCA5A5" stroke-opacity="0.38"/>
  <rect x="112" y="110" width="416" height="188" rx="20" fill="#181622" stroke="#F87171" stroke-opacity="0.35"/>
  <path d="M140 242H498" stroke="#6B7280" stroke-width="2" stroke-dasharray="6 8"/>
  <path d="M160 242C196 190 240 188 272 210C304 232 330 278 368 264C406 250 432 196 478 178" stroke="#FB7185" stroke-width="8" stroke-linecap="round"/>
  <circle cx="272" cy="210" r="10" fill="#FECACA"/>
  <circle cx="368" cy="264" r="10" fill="#FECACA"/>
  <circle cx="478" cy="178" r="10" fill="#FECACA"/>
  <circle cx="270" cy="164" r="24" fill="#FDE68A"/>
  <circle cx="332" cy="160" r="24" fill="#FEE2E2"/>
  <path d="M226 304C248 256 274 238 302 238C330 238 356 256 378 304" fill="#FDB4C0"/>
  <text x="320" y="352" text-anchor="middle" fill="#FCA5A5" font-family="Arial, sans-serif" font-size="21" font-weight="700">ORDEM AUTOMATICA</text>
</svg>
