<svg xmlns="http://www.w3.org/2000/svg" width="640" height="420" viewBox="0 0 640 420" fill="none">
  <rect width="640" height="420" fill="#1B1F2B"/>
  <circle cx="540" cy="76" r="120" fill="#FB7185" opacity="0.35"/>
  <circle cx="86" cy="340" r="120" fill="#7F1D1D" opacity="0.5"/>
  <rect x="64" y="48" width="512" height="324" rx="26" fill="#222738" stroke="#FDBA74" stroke-opacity="0.35"/>
  <path d="M186 306L276 226L356 276L454 184" stroke="#F59E0B" stroke-width="10" stroke-linecap="round" stroke-linejoin="round"/>
  <circle cx="276" cy="226" r="14" fill="#FCD34D"/>
  <circle cx="356" cy="276" r="14" fill="#FCD34D"/>
  <circle cx="454" cy="184" r="14" fill="#FCD34D"/>
  <circle cx="252" cy="160" r="30" fill="#FDE68A"/>
  <circle cx="326" cy="156" r="30" fill="#FCE7F3"/>
  <path d="M202 312C228 250 258 228 292 228C328 228 355 252 382 312" fill="#FED7AA"/>
  <path d="M264 182C272 177 281 177 289 182" stroke="#B45309" stroke-width="3" stroke-linecap="round"/>
  <path d="M340 178C348 173 356 173 363 178" stroke="#9A3412" stroke-width="3" stroke-linecap="round"/>
  <text x="320" y="354" text-anchor="middle" fill="#FCD34D" font-family="Arial, sans-serif" font-size="21" font-weight="700">FOTOS E DETALHES</text>
</svg>
